<?xml version="1.0" encoding="utf-8" standalone="yes"?>
<!DOCTYPE svg PUBLIC "-//W3C//DTD SVG 1.1//EN" "http://www.w3.org/Graphics/SVG/1.1/DTD/svg11.dtd">
<svg xmlns="http://www.w3.org/2000/svg" xmlns:xlink="http://www.w3.org/1999/xlink" xmlns:dc="http://purl.org/dc/elements/1.1/" xmlns:cc="http://web.resource.org/cc/" xmlns:rdf="http://www.w3.org/1999/02/22-rdf-syntax-ns#" xmlns:sodipodi="http://sodipodi.sourceforge.net/DTD/sodipodi-0.dtd" xmlns:inkscape="http://www.inkscape.org/namespaces/inkscape" version="1.1" baseProfile="full" width="32px" height="32px" viewBox="0 0 32 32" preserveAspectRatio="xMidYMid meet" id="svg_document" style="zoom: 16;"><!-- Created with macSVG - https://macsvg.org/ - https://github.com/dsward2/macsvg/ --><title id="svg_document_title">puter.svg</title><defs id="svg_document_defs"></defs><g id="main_group"><line stroke="#808080" y1="0.500000px" id="line5" x1="7.000000px" stroke-width="1px" y2="0.500000px" x2="28.000000px" transform=""></line><line stroke="#808080" y1="1.000000px" x1="27.500000px" stroke-width="1px" y2="19.000000px" x2="27.500000px" transform="" id="line6"></line><line stroke="#808080" y1="2.000000px" x1="26.500000px" stroke-width="1px" y2="20.000000px" x2="26.500000px" transform="" id="line7"></line><line stroke="#808080" y1="3.000000px" x1="25.500000px" stroke-width="1px" y2="20.000000px" x2="25.500000px" transform="" id="line8"></line><line stroke="#000" y1="1.000000px" x1="28.500000px" stroke-width="1px" y2="19.000000px" x2="28.500000px" transform="" id="line9"></line><line stroke="#000" y1="19.000000px" x1="27.500000px" stroke-width="1px" y2="20.000000px" x2="27.500000px" transform="" id="line10"></line><line stroke="#000" y1="20.000000px" x1="26.500000px" stroke-width="1px" y2="21.000000px" x2="26.500000px" transform="" id="line11"></line><line stroke="#000" y1="21.500000px" x1="3.000000px" stroke-width="1px" y2="21.500000px" x2="26.000000px" transform="" id="line12"></line><line stroke="#808080" y1="20.500000px" stroke-width="1px" x1="3.000000px" id="line13" y2="20.500000px" x2="26.000000px" transform=""></line><line stroke="#808080" y1="4.000000px" x1="3.500000px" stroke-width="1px" y2="20.000000px" x2="3.500000px" transform="" id="line14"></line><line stroke="#808080" y1="3.000000px" x1="4.500000px" stroke-width="1px" y2="4.000000px" x2="4.500000px" transform="" id="line15"></line><line stroke="#808080" y1="2.000000px" x1="5.500000px" stroke-width="1px" y2="3.000000px" x2="5.500000px" transform="" id="line16"></line><line stroke="#808080" y1="1.000000px" x1="6.500000px" stroke-width="1px" y2="2.000000px" x2="6.500000px" transform="" id="line17"></line><line stroke="#c0c0c0" y1="1.500000px" stroke-width="1px" x1="7.000000px" id="line18" y2="1.500000px" x2="26.000000px" transform=""></line><line stroke="#c0c0c0" y1="2.500000px" x1="6.000000px" stroke-width="1px" y2="2.500000px" x2="25.000000px" transform="" id="line19"></line><line stroke="#c0c0c0" y1="4.500000px" x1="5.000000px" stroke-width="1px" y2="4.500000px" x2="25.000000px" transform="" id="line1"></line><line stroke="#c0c0c0" y1="19.500000px" x1="5.000000px" stroke-width="1px" y2="19.500000px" x2="24.000000px" transform="" id="line2"></line><line stroke="#c0c0c0" y1="4.500000px" x1="5.500000px" stroke-width="1px" y2="19.500000px" x2="5.500000px" transform="" id="line3"></line><line stroke="#c0c0c0" y1="5.000000px" x1="24.500000px" stroke-width="1px" y2="20.000000px" x2="24.500000px" transform="" id="line4"></line><line stroke="#fff" y1="3.500000px" x1="5.000000px" stroke-width="1px" y2="3.500000px" x2="25.000000px" transform="" id="line20"></line><line stroke="#fff" y1="4.000000px" x1="4.500000px" stroke-width="1px" y2="20.000000px" x2="4.500000px" transform="" id="line21"></line><line stroke="#fff" y1="2.500000px" x1="25.000000px" stroke-width="1px" y2="2.500000px" x2="26.000000px" transform="" id="line22"></line><line stroke="#fff" y1="1.500000px" x1="26.000000px" stroke-width="1px" y2="1.500000px" x2="27.000000px" transform="" id="line23"></line><line stroke="#808080" y1="22.500000px" x1="1.000000px" stroke-width="1px" y2="22.500000px" x2="27.000000px" transform="" id="line24"></line><line stroke="#808080" y1="21.500000px" stroke-width="1px" x1="26.000000px" id="line25" y2="21.500000px" x2="28.000000px" transform=""></line><line stroke="#808080" y1="20.500000px" stroke-width="1px" x1="27.000000px" id="line26" y2="20.500000px" x2="29.000000px" transform=""></line><line stroke="#808080" y1="19.500000px" x1="28.000000px" stroke-width="1px" y2="19.500000px" x2="31.000000px" transform="" id="line27"></line><line stroke="#808080" y1="20.000000px" x1="30.500000px" stroke-width="1px" y2="28.000000px" x2="30.500000px" transform="" id="line28"></line><line stroke="#808080" y1="21.000000px" x1="29.500000px" stroke-width="1px" y2="29.000000px" x2="29.500000px" transform="" id="line29"></line><line stroke="#808080" y1="22.000000px" x1="28.500000px" stroke-width="1px" y2="30.000000px" x2="28.500000px" transform="" id="line30"></line><line stroke="#808080" y1="23.000000px" x1="27.500000px" stroke-width="1px" y2="31.000000px" x2="27.500000px" transform="" id="line31"></line><line stroke="#808080" y1="30.500000px" x1="0.000000px" stroke-width="1px" y2="30.500000px" x2="27.000000px" transform="" id="line32"></line><line stroke="#808080" y1="23.000000px" stroke-width="1px" x1="0.500000px" id="line33" y2="30.000000px" x2="0.500000px" transform=""></line><line stroke="#fff" y1="23.000000px" x1="1.500000px" stroke-width="1px" y2="30.000000px" x2="1.500000px" transform="" id="line34"></line><line stroke="#fff" y1="23.500000px" x1="2.000000px" stroke-width="1px" y2="23.500000px" x2="27.000000px" transform="" id="line35"></line><line stroke="#c0c0c0" y1="24.500000px" x1="2.000000px" stroke-width="1px" y2="24.500000px" x2="27.000000px" transform="" id="line36"></line><line stroke="#c0c0c0" y1="25.500000px" x1="2.000000px" stroke-width="1px" y2="25.500000px" x2="15.000000px" transform="" id="line37"></line><line stroke="#c0c0c0" y1="26.500000px" x1="2.000000px" stroke-width="1px" y2="26.500000px" x2="4.000000px" transform="" id="line38"></line><line stroke="#c0c0c0" y1="27.500000px" x1="2.000000px" stroke-width="1px" y2="27.500000px" x2="4.000000px" transform="" id="line39"></line><line stroke="#c0c0c0" y1="28.500000px" x1="2.000000px" stroke-width="1px" y2="28.500000px" x2="27.000000px" transform="" id="line40"></line><line stroke="#c0c0c0" y1="29.500000px" x1="2.000000px" stroke-width="1px" y2="29.500000px" x2="27.000000px" transform="" id="line41"></line><line stroke="#c0c0c0" y1="26.500000px" stroke-width="1px" x1="6.000000px" id="line42" y2="26.500000px" x2="15.000000px" transform=""></line><line stroke="#c0c0c0" y1="27.500000px" x1="6.000000px" stroke-width="1px" y2="27.500000px" x2="14.000000px" transform="" id="line43"></line><line stroke="#c0c0c0" y1="27.500000px" x1="22.000000px" stroke-width="1px" y2="27.500000px" x2="27.000000px" transform="" id="line44"></line><line stroke="#c0c0c0" y1="26.500000px" stroke-width="1px" x1="25.000000px" id="line45" y2="26.500000px" x2="27.000000px" transform=""></line><line stroke="#c0c0c0" y1="25.500000px" x1="25.000000px" stroke-width="1px" y2="25.500000px" x2="27.000000px" transform="" id="line46"></line><line stroke="#c0c0c0" y1="27.500000px" x1="14.000000px" stroke-width="1px" y2="27.500000px" x2="21.000000px" transform="" id="line47"></line><line stroke="#c0c0c0" y1="20.000000px" x1="29.500000px" stroke-width="1px" y2="21.000000px" x2="29.500000px" transform="" id="line48"></line><line stroke="#c0c0c0" y1="21.000000px" x1="28.500000px" stroke-width="1px" y2="22.000000px" x2="28.500000px" transform="" id="line49"></line><line stroke="#c0c0c0" y1="22.000000px" x1="27.500000px" stroke-width="1px" y2="23.000000px" x2="27.500000px" transform="" id="line50"></line><line stroke="#347222" y1="27.500000px" x1="4.000000px" stroke-width="1px" y2="27.500000px" x2="6.000000px" transform="" id="line51"></line><line stroke="#6bd450" y1="26.500000px" x1="4.000000px" stroke-width="1px" y2="26.500000px" x2="6.000000px" transform="" id="line52"></line><line stroke="#000" y1="26.500000px" x1="15.000000px" stroke-width="1px" y2="26.500000px" x2="25.000000px" transform="" id="line53"></line><line stroke="#808080" y1="25.500000px" x1="15.000000px" stroke-width="1px" y2="25.500000px" x2="25.000000px" transform="" id="line54"></line><line stroke="#808080" y1="27.500000px" x1="21.000000px" stroke-width="1px" y2="27.500000px" x2="22.000000px" transform="" id="line55"></line><line stroke="#000" y1="31.500000px" stroke-width="1px" x1="1.000000px" id="line56" y2="31.500000px" x2="28.000000px" transform=""></line><line stroke="#808080" y1="5.500000px" x1="6.000000px" stroke-width="1px" y2="5.500000px" x2="23.000000px" transform="" id="line57"></line><line stroke="#fff" y1="5.000000px" x1="23.500000px" stroke-width="1px" y2="19.000000px" x2="23.500000px" transform="" id="line58"></line><line stroke="#fff" y1="18.500000px" x1="6.000000px" stroke-width="1px" y2="18.500000px" x2="23.000000px" transform="" id="line59"></line><line stroke="#000" y1="6.500000px" x1="6.000000px" stroke-width="1px" y2="6.500000px" x2="22.000000px" transform="" id="line60"></line><line stroke="#000" y1="7.000000px" x1="6.500000px" stroke-width="1px" y2="17.000000px" x2="6.500000px" transform="" id="line61"></line><line stroke="#040452" y1="6.000000px" stroke-width="1px" x1="22.500000px" id="line62" y2="18.000000px" x2="22.500000px" transform=""></line><line stroke="#040452" y1="17.500000px" x1="6.000000px" stroke-width="1px" y2="17.500000px" x2="22.000000px" transform="" id="line63"></line><line stroke="#0200ef" y1="16.500000px" stroke-width="1px" x1="7.000000px" id="line64" y2="16.500000px" x2="22.000000px" transform=""></line><line stroke="#0200ef" y1="15.500000px" x1="7.000000px" stroke-width="1px" y2="15.500000px" x2="13.000000px" transform="" id="line65"></line><line stroke="#0200ef" y1="14.500000px" x1="7.000000px" stroke-width="1px" y2="14.500000px" x2="13.000000px" transform="" id="line66"></line><line stroke="#0200ef" y1="12.500000px" stroke-width="1px" x1="7.000000px" id="line67" y2="12.500000px" x2="10.000000px" transform=""></line><line stroke="#0200ef" y1="11.5px" stroke-width="1px" x1="7px" id="line68" y2="11.5px" x2="10px" transform=""></line><line stroke="#0200ef" y1="10.500000px" x1="7.000000px" stroke-width="1px" y2="10.500000px" x2="10.000000px" transform="" id="line69"></line><line stroke="#0200ef" y1="7.500000px" x1="7.000000px" stroke-width="1px" y2="7.500000px" x2="22.000000px" transform="" id="line70"></line><line stroke="#0200ef" y1="8.500000px" stroke-width="1px" x1="9.000000px" id="line71" y2="8.500000px" x2="22.000000px" transform=""></line><line stroke="#0200ef" y1="8.500000px" x1="7.000000px" stroke-width="1px" y2="8.500000px" x2="8.000000px" transform="" id="line72"></line><line stroke="#0200ef" y1="9.500000px" x1="7.000000px" stroke-width="1px" y2="9.500000px" x2="8.000000px" transform="" id="line73"></line><line stroke="#6eebf1" y1="8.500000px" x1="8.000000px" stroke-width="1px" y2="8.500000px" x2="9.000000px" transform="" id="line74"></line><line stroke="#6eebf1" y1="9.500000px" x1="8.000000px" stroke-width="1px" y2="9.500000px" x2="9.000000px" transform="" id="line75"></line><line stroke="#0200ef" y1="9.500000px" x1="9.000000px" stroke-width="1px" y2="9.500000px" x2="10.000000px" transform="" id="line76"></line><line stroke="#000" y1="9.500000px" x1="10.000000px" stroke-width="1px" y2="9.500000px" x2="17.000000px" transform="" id="line77"></line><line stroke="#0200ef" y1="9.500000px" x1="17.000000px" stroke-width="1px" y2="9.500000px" x2="22.000000px" transform="" id="line78"></line><line stroke="#0200ef" y1="10.500000px" x1="17.000000px" stroke-width="1px" y2="10.500000px" x2="22.000000px" transform="" id="line79"></line><line stroke="#000" y1="13.500000px" x1="10.000000px" stroke-width="1px" y2="13.500000px" x2="13.000000px" transform="" id="line80"></line><line stroke="#0200ef" y1="13.500000px" stroke-width="1px" x1="7.000000px" y2="13.500000px" x2="10.000000px" transform="" id="line81"></line><line stroke="#000" y1="20.000000px" x1="31.500000px" stroke-width="1px" y2="28.000000px" x2="31.500000px" transform="" id="line82"></line><line stroke="#000" y1="28.000000px" x1="30.500000px" stroke-width="1px" y2="29.000000px" x2="30.500000px" transform="" id="line83"></line><line stroke="#000" y1="29.000000px" x1="29.500000px" stroke-width="1px" y2="30.000000px" x2="29.500000px" transform="" id="line84"></line><line stroke="#000" y1="30.000000px" x1="28.500000px" stroke-width="1px" y2="31.000000px" x2="28.500000px" transform="" id="line85"></line><line stroke="#000" y1="15.500000px" x1="13.000000px" stroke-width="1px" y2="15.500000px" x2="20.000000px" transform="" id="line86"></line><line stroke="#808080" y1="10.000000px" x1="10.500000px" stroke-width="1px" y2="13.000000px" x2="10.500000px" transform="" id="line87"></line><line stroke="#808080" y1="12.000000px" x1="13.500000px" stroke-width="1px" y2="15.000000px" x2="13.500000px" transform="" id="line88"></line><line stroke="#000" y1="11.000000px" x1="19.500000px" stroke-width="1px" y2="15.000000px" x2="19.500000px" transform="" id="line89"></line><line stroke="#0200ef" y1="11.000000px" x1="20.500000px" stroke-width="1px" y2="16.000000px" x2="20.500000px" transform="" id="line90"></line><line stroke="#0200ef" y1="11.000000px" x1="21.500000px" stroke-width="1px" y2="16.000000px" x2="21.500000px" transform="" id="line91"></line><line stroke="#040452" y1="11.5px" stroke-width="1px" x1="13px" id="line92" y2="11.5px" x2="19px" transform=""></line><line stroke="#fff" y1="13.500000px" x1="14.000000px" stroke-width="3px" y2="13.500000px" x2="19.000000px" transform="" id="line93"></line><line stroke="#fff" y1="10.500000px" stroke-width="1px" x1="11.000000px" y2="10.500000px" x2="16.000000px" transform="" id="line94"></line><line stroke="#fff" y1="11.500000px" stroke-width="1px" x1="11.000000px" y2="11.500000px" x2="13.000000px" transform="" id="line95"></line><line stroke="#fff" y1="12.500000px" stroke-width="1px" x1="11.000000px" y2="12.500000px" x2="13.000000px" transform="" id="line96"></line><line stroke="#000" y1="10.500000px" stroke-width="1px" x1="16.000000px" y2="10.500000px" x2="17.000000px" transform="" id="line97"></line></g>.</svg>